<?xml version="1.0" encoding="utf-8"?>
<!-- Generator: Adobe Illustrator 26.0.1, SVG Export Plug-In . SVG Version: 6.00 Build 0)  -->
<svg version="1.1" id="Layer_1" xmlns="http://www.w3.org/2000/svg" xmlns:xlink="http://www.w3.org/1999/xlink" x="0px" y="0px"
	 viewBox="0 0 18 18" style="enable-background:new 0 0 18 18;" xml:space="preserve">
<style type="text/css">
	.st0{fill:none;stroke:#FFFFFF;stroke-width:2;stroke-linecap:round;stroke-linejoin:round;}
</style>
<path class="st0" d="M9.7,1c1.5,0.1,3,0.7,4.2,1.6s2.1,2.2,2.6,3.6s0.6,3,0.3,4.5c-0.3,1.5-1.1,2.8-2.2,3.9s-2.4,1.8-3.9,2.2
	c-1.5,0.3-3,0.2-4.5-0.3c-1.4-0.5-2.7-1.4-3.6-2.6S1.1,11.2,1,9.7c1.2,0.9,2.7,1.3,4.2,1.2s2.9-0.8,3.9-1.8c1.1-1.1,1.7-2.5,1.8-3.9
	C11,3.7,10.6,2.2,9.7,1z"/>
</svg>
